# xmcd
#
# Track frame offsets: 
#        150
#        18265
#        37297
#
# Disc length: 755 seconds
#
# Revision: 5
# Processed by: cddbd v1.5.2PL0 Copyright (c) Steve Scherf et al.
# Submitted via: ExactAudioCopy v1.0b3
#
DISCID=1f02f103
DTITLE=Brainstorm - Maybe
DYEAR=1900
DGENRE=
TTITLE0=Maybe (Radio Edit)
TTITLE1=Maybe (Album Edit)
TTITLE2=Hearts Desire
EXTD=Promotion CD\nItalo Pop
EXTT0=
EXTT1=
EXTT2=
PLAYORDER=
